<?xml version="1.0" encoding="UTF-8" standalone="no" ?>
<!DOCTYPE svg PUBLIC "-//W3C//DTD SVG 1.1//EN" "http://www.w3.org/Graphics/SVG/1.1/DTD/svg11.dtd">
<svg xmlns="http://www.w3.org/2000/svg" xmlns:xlink="http://www.w3.org/1999/xlink" version="1.1" width="250" height="80" viewBox="0 0 250 80" xml:space="preserve">
<desc>Created with Fabric.js 4.6.0</desc>
<defs>
</defs>
<g transform="matrix(0.99 0 0 1.02 151 38.5)" style="" id="n6fo8D8WqmGrhBVdKUrzW"  >
		<text xml:space="preserve" font-family="Dancing Script" font-size="43" font-style="normal" font-weight="700" letter-spacing="2.408" line-height="1" style="stroke: none; stroke-width: 1; stroke-dasharray: none; stroke-linecap: butt; stroke-dashoffset: 0; stroke-linejoin: miter; stroke-miterlimit: 4; fill: rgb(115,66,214); fill-rule: nonzero; opacity: 0.8; white-space: pre;" ><tspan x="-94.23" y="10.77" >B</tspan><tspan x="-63.88" y="10.77" >o</tspan><tspan x="-45.47" y="10.77" >o</tspan><tspan x="-27.07" y="10.77" >k</tspan><tspan x="-4.79" y="10.77" >k</tspan><tspan x="17.48" y="10.77" >e</tspan><tspan x="34.55" y="10.77" >e</tspan><tspan x="51.62" y="10.77" >d</tspan><tspan x="75.14" y="10.77" >a</tspan></text>
</g>
<g transform="matrix(0.09 0 0 0.09 28 40)" id="HpR3UTTn0BApa0vfBS8lL"  >
<path style="stroke: none; stroke-width: 2; stroke-dasharray: none; stroke-linecap: butt; stroke-dashoffset: 0; stroke-linejoin: miter; stroke-miterlimit: 4; fill: rgb(184,31,73); fill-rule: nonzero; opacity: 1;" vector-effect="non-scaling-stroke"  transform=" translate(0, 0)" d="M -121.67519 147.65547 C -105.67619 148.18147000000002 -89.27519000000001 147.79047 -73.39719 149.96747000000002 C -71.27418999999999 150.25847000000002 -71.95819 153.44147 -73.87919 153.52747000000002 C -89.71419 154.23947 -105.86618999999999 152.31047 -121.67518999999999 151.37447000000003 C -124.05018999999999 151.23347000000004 -124.07918999999998 147.57647000000003 -121.67518999999999 147.65547000000004 z M -101.73219 164.84647 C -74.56819 166.32947000000001 -47.25719 169.95847 -20.084190000000007 170.49047000000002 C -18.495190000000008 170.52147000000002 -18.093190000000007 168.00547 -19.702190000000005 167.67047000000002 C -46.374190000000006 162.11247000000003 -74.60519000000001 162.35247 -101.73219 161.78647 C -103.71219 161.74547 -103.68819 164.73947 -101.73219 164.84647 z M -20.08419 141.52247 C 5.86881 142.98147 31.740810000000003 146.96947 57.684810000000006 147.90847 C 59.07981000000001 147.95847 59.39481000000001 145.77546999999998 58.01681000000001 145.45747 C 32.67681 139.62147 5.799810000000008 138.70247 -20.084189999999992 137.37947 C -22.751189999999994 137.24347 -22.73718999999999 141.37347 -20.084189999999992 141.52247 z M -33.51919 156.94347 C -15.128190000000004 159.39346999999998 3.338809999999995 161.08847 21.82181 162.67446999999999 C 37.47981 164.01746999999997 53.93081 166.75947 69.64581 165.91146999999998 C 71.24280999999999 165.82546999999997 71.61780999999999 163.57046999999997 70.02781 163.09147 C 55.605810000000005 158.75046999999998 39.212810000000005 158.94447 24.30581 157.81546999999998 C 4.998810000000002 156.35246999999998 -14.299189999999996 154.80146999999997 -33.51819 152.42547 C -36.41019 152.06646999999998 -36.354189999999996 156.56546999999998 -33.519189999999995 156.94347 z M 60.14081 176.63047 C 44.16181 172.26047 26.115810000000003 174.20347 9.67481 172.72347 C 6.265810000000001 172.41647 6.286810000000001 177.73846999999998 9.67481 178.04346999999999 C 25.91581 179.50447 43.41981 181.46546999999998 59.67781 180.05147 C 61.55281 179.88947 62.14081 177.17747 60.14081 176.63047 z M -127.63619 134.69647 C -125.31319 134.63647 -125.35619 131.28547 -127.63619 131.11847 C -152.05619000000002 129.32547 -176.88419 127.30747 -201.37718999999998 128.28447 C -204.18319 128.39647 -204.20218999999997 132.76147 -201.37718999999998 132.66246999999998 C -176.75818999999998 131.80647 -152.24618999999998 135.33246999999997 -127.63618999999998 134.69646999999998 z M -78.46719 -130.59353 C -74.57019 -147.28252999999998 -66.12919000000001 -163.21052999999998 -59.53819 -178.98853 C -55.47519 -188.71353 -54.53719 -201.18653 -47.26019 -209.18653 C -46.524190000000004 -209.99553 -45.51019 -209.86753000000002 -44.81819 -209.31353000000001 C -10.383189999999999 -207.53453000000002 24.097809999999996 -206.44653000000002 58.569810000000004 -205.71553 C 93.13181 -204.98253 127.89081 -206.40753 162.40381000000002 -204.66753 C 163.59881000000001 -205.10553 165.32181000000003 -204.32553 165.13481000000002 -202.87753 C 163.30981000000003 -188.76953 157.52481 -174.84653 153.05081 -161.36153000000002 C 148.12281000000002 -146.50553000000002 142.97981000000001 -131.73253000000003 137.20081000000002 -117.18353000000002 C 136.84981000000002 -116.30053000000002 136.08781000000002 -115.89853000000002 135.32481 -115.86453000000002 C 135.31281 -115.86253000000002 135.30681 -115.85153000000001 135.29481 -115.84953000000002 C 117.23081000000002 -114.05753000000001 97.81081 -117.77253000000002 79.68581 -118.94953000000001 C 62.35181 -120.07553000000001 45.00981 -121.04753000000001 27.660810000000005 -121.90353 C -7.413189999999993 -123.63553 -42.485189999999996 -125.04353 -77.47918999999999 -128.07053 C -78.89518999999999 -128.19153 -79.23518999999999 -129.83453 -78.46718999999999 -130.59353 z M -75.25219 -130.94353 C -39.97019 -130.53753 -4.716189999999997 -129.44853 30.533810000000003 -127.86753000000002 C 48.86681 -127.04453000000002 67.19381 -126.10853000000002 85.50381 -124.88653000000002 C 101.38881 -123.82653000000002 118.55681 -124.12553000000003 134.01081 -119.95253000000002 C 139.35980999999998 -133.99653000000004 144.21781 -148.21253000000002 148.61181 -162.58453000000003 C 152.46080999999998 -175.17353000000003 155.15780999999998 -188.69653000000002 160.29781 -200.86453000000003 C 126.70181 -197.61653000000004 92.23281 -199.48653000000004 58.56881 -200.35653000000002 C 24.11481 -201.24653 -10.344189999999998 -202.84953000000002 -44.649190000000004 -206.23653000000002 C -49.761190000000006 -197.16753000000003 -50.557190000000006 -185.74553000000003 -54.61419000000001 -176.11053 C -58.08519000000001 -167.86753000000002 -61.356190000000005 -159.24053 -65.00919 -150.82253 C -64.38419 -151.38353 -63.41019000000001 -151.58653 -62.61619 -150.86353 C -56.73519 -145.51053 -49.99719 -140.43153 -45.19319 -134.05752999999999 C -44.576190000000004 -133.23952999999997 -45.75119 -132.22553 -46.54519 -132.70452999999998 C -53.394189999999995 -136.83452999999997 -59.14619 -143.08652999999998 -65.08019 -148.40052999999997 C -65.46119 -148.74253 -65.60519000000001 -149.13352999999998 -65.61419000000001 -149.51752999999997 C -68.45619 -143.06452999999996 -71.59319 -136.80052999999995 -75.25219000000001 -130.94352999999995 z M -83.79419 -77.75153 C -60.799189999999996 -75.76553 -37.11219 -77.85453 -14.002189999999999 -77.39853000000001 C 9.07281 -76.94453000000001 32.69381 -74.02653000000001 55.72081 -75.48353 C 57.55381 -75.59953 58.17581 -78.42553000000001 56.17781 -78.85853 C 33.504810000000006 -83.76953 9.10481 -83.25953 -14.002190000000006 -83.52853 C -37.02619000000001 -83.79753000000001 -61.493190000000006 -84.99553 -84.23819 -81.03353 C -86.21519 -80.69053 -85.54319000000001 -77.90353 -83.79419 -77.75153 z M 47.66481 -36.79653 C 49.32081 -36.93853 50.001810000000006 -39.61853 48.090810000000005 -39.940529999999995 C 29.822810000000004 -43.019529999999996 10.975810000000003 -43.03453 -7.4691899999999976 -44.66853 C -29.45819 -46.61653 -51.376189999999994 -49.105529999999995 -73.22319 -52.270529999999994 C -76.20519 -52.702529999999996 -77.51919000000001 -48.15953 -74.48719 -47.68552999999999 C -35.11119 -41.53952999999999 7.7808100000000024 -33.367529999999995 47.66481 -36.79652999999999 z M -81.82119 -1.91753 C -59.48119 -2.24953 -37.08419 -1.5295299999999998 -14.802189999999996 0.11246999999999985 C 7.384810000000005 1.7474699999999999 29.588810000000002 5.7334700000000005 51.79981000000001 6.4434700000000005 C 53.70881000000001 6.50447 54.03481000000001 3.6764700000000006 52.24381000000001 3.1604700000000006 C 9.951810000000009 -9.03553 -38.270189999999985 -7.706530000000001 -81.82118999999999 -6.296530000000001 C -84.62818999999999 -6.204530000000001 -84.64918999999999 -1.8755300000000004 -81.82118999999999 -1.917530000000001 z M 44.23981 41.20447 C -2.877189999999999 30.145470000000003 -53.616189999999996 30.023470000000003 -101.73819 31.38447 C -104.88019 31.47247 -104.90019000000001 36.30147 -101.73819 36.28047 C -52.85219 35.94947 -4.891190000000009 42.04047 43.77680999999998 44.62647 C 45.73480999999998 44.73047 46.14980999999998 41.652469999999994 44.239809999999984 41.20447 z M 139.94881 6.27847 C 127.73681 31.73247 120.20081 59.55347 110.18781000000001 85.95147 C 88.38981000000001 79.52247 61.576810000000016 80.65947 39.18481000000001 80.80947 C 36.397810000000014 80.82847000000001 36.394810000000014 85.10647 39.18481000000001 85.14047000000001 C 62.793810000000015 85.42847 87.09981000000002 90.85247000000001 110.59681000000002 89.57947000000001 C 111.55581000000002 89.95547000000002 112.86181000000002 89.70047000000001 113.35881000000002 88.46747000000002 C 123.99081000000002 62.079470000000015 135.31981000000002 34.92947000000002 142.74481000000003 7.457470000000015 C 143.18381000000002 5.835470000000015 140.71881000000002 4.6744700000000154 139.94881000000004 6.278470000000015 z M -135.10519 78.33647 C -160.97519 72.40347 -191.80819 71.67347000000001 -218.26719 73.20247 C -220.85419 73.35147 -220.88019 77.38147000000001 -218.26719 77.25147000000001 C -190.63219 75.87847000000001 -163.07519 81.25947000000001 -135.49319 81.20347000000001 C -133.87919 81.20047000000001 -133.46719 78.71147 -135.10519 78.33647 z M -213.28819 55.28747 C -202.40919 55.148469999999996 -192.07119 57.97047 -181.33219 58.401469999999996 C -180.22818999999998 58.44546999999999 -179.77119 56.810469999999995 -180.76219 56.29647 C -190.26319 51.36747 -202.85119 51.40247 -213.28819000000001 51.89847 C -215.45419 52.00047 -215.48219 55.31647 -213.28819000000001 55.287470000000006 z M -207.29719 41.59347 C -202.29319 41.14047 -197.32919 41.275470000000006 -192.41719 42.42647 C -188.02819 43.455470000000005 -183.98319 45.65847 -179.55919 46.43347 C -178.45619 46.62647 -177.67319 45.42347 -178.46019 44.54547 C -185.14819 37.07047 -198.59919000000002 36.72847 -207.78519 37.98747 C -209.81719 38.26547 -209.35819 41.77947 -207.29719 41.59347 z M -203.72519 26.92247 C -199.93119 27.51147 -196.13819 28.08847 -192.33419 28.60747 C -189.29919 29.02247 -186.09419 29.89647 -183.11919 28.94247 C -182.16319000000001 28.63547 -181.99219 27.37347 -182.84319 26.83447 C -185.47519 25.16547 -188.78718999999998 25.196469999999998 -191.82318999999998 24.83347 C -195.63718999999998 24.37747 -199.45318999999998 23.97947 -203.27418999999998 23.59247 C -205.15618999999998 23.40347 -205.61518999999998 26.629469999999998 -203.72518999999997 26.922469999999997 z M -197.74819 17.04447 C -195.21618999999998 17.47947 -192.68319 17.91447 -190.15118999999999 18.34947 C -188.21919 18.68147 -186.59819 19.30447 -184.81118999999998 18.32847 C -184.18618999999998 17.98647 -184.15418999999997 17.15447 -184.59718999999998 16.664469999999998 C -185.98619 15.128469999999998 -187.78118999999998 15.246469999999999 -189.77219 14.913469999999998 C -192.12619 14.519469999999998 -194.48119 14.124469999999999 -196.83518999999998 13.730469999999999 C -198.99518999999998 13.368469999999999 -199.92918999999998 16.669469999999997 -197.74819 17.044469999999997 z M -191.15219 8.63947 C -187.93919 7.960469999999999 -184.58019 7.567469999999999 -181.28919 7.556469999999999 C -178.55719 7.547469999999999 -175.82419 7.840469999999999 -173.15819 7.110469999999999 C -172.13918999999999 6.8314699999999995 -172.00818999999998 5.457469999999999 -172.87118999999998 4.9164699999999995 C -178.30518999999998 1.5114699999999996 -186.38718999999998 3.5494699999999995 -192.02819 5.461469999999999 C -194.03619 6.14347 -193.23319 9.079469999999999 -191.15219 8.63947 z M -179.74719 -3.45353 C -165.53519 -34.79753 -148.71819 -66.53753 -138.83719 -99.58453 C -138.42319 -100.96553 -140.53718999999998 -101.91253 -141.20319 -100.58253 C -156.64319 -69.72653 -168.75319000000002 -36.81353000000001 -182.91719 -5.306530000000009 C -183.87819000000002 -3.170530000000009 -180.72319000000002 -1.2995300000000096 -179.74719000000002 -3.4535300000000095 z M -126.91119 -112.97253 C -129.54819 -114.16053000000001 -132.35919 -114.01153000000001 -135.22119 -113.97153 C -138.65719 -113.92353 -142.14519 -113.96453 -145.56319000000002 -113.61553 C -147.98119000000003 -113.36853 -147.98619000000002 -110.09653 -145.56319000000002 -109.84953 C -142.14419 -109.50053 -138.65719 -109.54053 -135.22119 -109.49353 C -132.36019000000002 -109.45453 -129.54919 -109.30453000000001 -126.91119 -110.49353 C -125.97219000000001 -110.91653000000001 -125.97219000000001 -112.54853000000001 -126.91119 -112.97253 z M -136.13619 -125.29853 C -138.30319 -125.66153 -139.28319 -122.45053 -137.06219 -121.93953 C -132.90018999999998 -120.98153 -127.45118999999998 -121.44053000000001 -123.32018999999998 -122.33753 C -122.19218999999998 -122.58253 -122.20218999999999 -124.05053 -123.02218999999998 -124.61753 C -126.63518999999998 -127.11653 -132.07618999999997 -124.61853 -136.13618999999997 -125.29853 z M -119.37419 -134.71053 C -122.03519 -135.48853 -124.88919 -135.18353000000002 -127.63619 -135.17353 C -129.60519 -135.16653 -129.60819 -132.12053 -127.63619 -132.11353 C -124.88919 -132.10353 -122.03519 -131.79853 -119.37419 -132.57653 C -118.32319 -132.88452999999998 -118.32119 -134.40252999999998 -119.37419 -134.71052999999998 z M -111.28419 -156.21853 C -104.18319 -172.33652999999998 -96.26319 -188.36453 -90.62119 -205.06752999999998 C -90.09919 -206.61352999999997 -92.46818999999999 -207.59252999999998 -93.24519 -206.17352999999997 C -101.63118999999999 -190.87052999999997 -107.99919 -174.35652999999996 -114.98218999999999 -158.38152999999997 C -116.07518999999999 -155.88252999999997 -112.39518999999999 -153.69652999999997 -111.28419 -156.21852999999996 z M 193.14681 -273.03753 C 202.43981 -273.86053 211.90580999999997 -273.66353 221.10280999999998 -271.97953 C 229.35980999999998 -270.46853 237.02980999999997 -266.98453 245.23681 -265.39153 C 246.25280999999998 -265.19453 247.32980999999998 -266.51953 246.35881 -267.31953 C 232.26481 -278.94552999999996 209.82381 -279.16953 192.75181 -275.95052999999996 C 191.12781 -275.64453 191.47681 -272.88953 193.14681000000002 -273.03752999999995 z M 230.54581 -251.88653 C 231.90581 -251.48552999999998 232.53880999999998 -253.10953 231.80480999999997 -254.05052999999998 C 226.38481 -260.99953 214.54980999999998 -261.74753 206.56780999999998 -260.66652999999997 C 204.71881 -260.41652999999997 205.13680999999997 -257.21353 207.01280999999997 -257.38352999999995 C 211.34980999999996 -257.77852999999993 215.55380999999997 -257.47752999999994 219.75180999999998 -256.2645299999999 C 223.52880999999996 -255.17352999999991 226.81680999999998 -252.98552999999993 230.54581 -251.88652999999994 z M 228.99481 -241.86553 C 230.05381 -241.92353 230.91681 -243.02353 230.28281 -244.05053 C 227.01681000000002 -249.34553 218.69481000000002 -250.87953000000002 212.97281 -251.22953 C 210.17981 -251.40053 210.21381000000002 -247.10853 212.97281 -246.89853000000002 C 215.92881 -246.67253000000002 218.79581000000002 -246.04053000000002 221.54381 -244.91553000000002 C 223.12781 -244.26653000000002 224.60281 -243.39953000000003 226.14981 -242.70553 C 225.04381 -242.11153000000002 224.53981 -240.46453 226.00681 -239.64053 C 228.18881 -238.41453 230.29681 -237.17153000000002 232.63381 -236.26853 C 233.60481000000001 -235.89353 234.22781 -237.25953 233.59581 -237.92052999999999 C 232.18781 -239.39452999999997 230.59681 -240.62252999999998 228.99481 -241.86552999999998 z M -37.60019 -146.77953 C -41.67219 -150.95853 -45.34019 -155.47553 -48.67919 -160.25753 C -49.96819 -162.10353 -53.01719 -160.36453 -51.72819 -158.47553 C -48.57519 -153.85653 -45.144189999999995 -149.44653 -41.34719 -145.33652999999998 C -37.67519 -141.36153 -33.626189999999994 -136.90152999999998 -28.60219 -134.67153 C -27.71019 -134.27553 -26.29219 -135.20253 -27.05619 -136.21752999999998 C -30.04919 -140.19453 -34.13619 -143.22553 -37.60019 -146.77953 z M -43.00319 -176.48853 C -44.729189999999996 -178.34853 -47.397189999999995 -175.60853 -45.766189999999995 -173.72553 C -35.357189999999996 -161.70353 -25.386189999999996 -148.81653 -13.128189999999996 -138.62353 C -12.249189999999997 -137.89153 -10.700189999999996 -138.83552999999998 -11.428189999999997 -139.93553 C -20.293189999999996 -153.34353 -32.09918999999999 -164.74153 -43.00319 -176.48853 z M -34.22019 -191.18053 C -35.94919 -192.91253 -38.47419 -190.32253 -36.884190000000004 -188.51753 C -22.262190000000004 -171.92753 -10.282190000000003 -152.61652999999998 4.826809999999995 -136.62553 C 6.024809999999995 -135.35653 7.704809999999995 -136.96553 7.081809999999995 -138.36553 C -1.704190000000005 -158.12153 -19.136190000000006 -176.07253 -34.22019 -191.18053 z M 30.79481 -130.74653 C 31.77781 -129.81053 33.35781 -130.99653 32.679809999999996 -132.20153000000002 C 21.948809999999995 -151.27153 4.831809999999997 -167.68953000000002 -10.897190000000002 -182.65653000000003 C -12.742190000000003 -184.41353000000004 -15.458190000000002 -181.70153000000002 -13.693190000000001 -179.86053000000004 C 1.5348099999999985 -163.97453000000004 14.887809999999998 -145.88353000000004 30.79481 -130.74653000000004 z M 31.81681 -146.97653 C 36.46981 -142.71153 41.14881 -136.96953 46.959810000000004 -134.41053 C 48.28181000000001 -133.82853 49.80481 -135.05453 49.020810000000004 -136.47253 C 45.965810000000005 -142.00053 39.843810000000005 -146.15053 35.20181 -150.36253 C 29.853810000000003 -155.21253 24.41881 -159.96053 18.969810000000003 -164.69553 C 16.999810000000004 -166.40653 14.148810000000003 -163.64052999999998 16.07381 -161.79953 C 21.28181 -156.81453 26.502810000000004 -151.84753 31.816810000000004 -146.97653 z M 53.38881 -145.02053 C 56.63681 -141.36053 60.08881 -136.10853 64.62081 -134.13553000000002 C 65.74581 -133.64553 67.37981 -134.47053000000002 66.90281 -135.89053 C 65.33881 -140.55353000000002 60.76081 -144.21253000000002 57.42881 -147.71453000000002 C 53.26781 -152.08753000000002 49.106809999999996 -156.46053000000003 44.945809999999994 -160.83453000000003 C 43.07281 -162.80253000000002 40.204809999999995 -159.87553000000003 41.98280999999999 -157.87153000000004 C 45.78480999999999 -153.58753000000004 49.58680999999999 -149.30353000000002 53.38880999999999 -145.02053000000004 z M 72.79681 -143.27453 C 76.40280999999999 -139.87453 80.03080999999999 -135.46853 84.70380999999999 -133.63153 C 86.21480999999999 -133.03853 87.18580999999999 -134.93653 86.61780999999999 -136.12153 C 84.43880999999999 -140.66153 79.39780999999999 -144.13253 75.72780999999999 -147.47953 C 71.51080999999999 -151.32453 67.29480999999998 -155.16853 63.076809999999995 -159.01353 C 60.823809999999995 -161.06853 57.48080999999999 -157.76553 59.71480999999999 -155.65153 C 64.07481 -151.52653 68.42980999999999 -147.39353 72.79681 -143.27453 z M 91.25281 -139.18153 C 94.30081 -136.16153 97.30780999999999 -132.27353000000002 101.31181 -130.58453 C 102.54081 -130.06653 103.27981 -131.65653 102.85381 -132.59053 C 101.04580999999999 -136.55253 96.67881 -139.63853 93.55881 -142.59353 C 89.95980999999999 -146.00252999999998 86.35781 -149.40652999999998 82.75780999999999 -152.81353 C 81.04280999999999 -154.43553 78.47980999999999 -151.89052999999998 80.16180999999999 -150.21652999999998 C 83.85880999999999 -146.53752999999998 87.54780999999998 -142.85152999999997 91.25280999999998 -139.18152999999998 z M 102.35981 -148.50853 C 101.28681 -149.71953000000002 99.56680999999999 -147.95753000000002 100.59581 -146.74453 C 105.69381 -140.73653 110.49381 -133.94053 116.57581 -128.89153 C 117.29381000000001 -128.29452999999998 118.49481 -129.04853 117.94281000000001 -129.94653 C 113.76381 -136.76253 107.64281000000001 -142.54653 102.35981000000001 -148.50853 z M 104.50681 -160.76653 C 110.22281 -153.49052999999998 115.64781 -144.87252999999998 122.89780999999999 -139.09453 C 123.94981 -138.25653 125.41180999999999 -139.27152999999998 124.78281 -140.54953 C 121.06181 -148.10353 114.58780999999999 -154.59253 109.24681 -161.05553 C 103.20881 -168.36153000000002 97.27580999999999 -175.76753 91.01080999999999 -182.88253 C 89.93280999999999 -184.10753 87.72980999999999 -182.45853 88.71880999999999 -181.11353 C 93.80980999999998 -174.20253 99.20481 -167.51753 104.50680999999999 -160.76653 z M 123.12781 -157.30653 C 127.42381 -151.78053 131.36681 -145.12253 137.10980999999998 -141.03553 C 137.74380999999997 -140.58453 138.80380999999997 -141.34753 138.49281 -142.09953 C 135.91081 -148.33552999999998 130.65680999999998 -153.42353 126.43280999999999 -158.61652999999998 C 121.06380999999999 -165.21453 115.69680999999999 -171.81353 110.32880999999999 -178.41152999999997 C 109.15180999999998 -179.85752999999997 107.18480999999998 -177.81252999999998 108.29880999999999 -176.38152999999997 C 113.24080999999998 -170.02252999999996 118.18480999999998 -163.66452999999996 123.12780999999998 -157.30652999999998 z M 129.82081 -165.01753 C 132.58080999999999 -162.59852999999998 135.34581 -159.31453 138.98681 -158.35153 C 140.18180999999998 -158.03553 140.86881 -159.26053 140.44880999999998 -160.25352999999998 C 138.98780999999997 -163.70653 135.13880999999998 -166.14552999999998 132.35080999999997 -168.54452999999998 C 129.13380999999995 -171.31152999999998 125.85780999999997 -174.00652999999997 122.52580999999996 -176.63352999999998 C 120.74480999999996 -178.03852999999998 118.23480999999997 -175.73053 119.96280999999996 -174.07053 C 123.18080999999997 -170.97653 126.46380999999997 -167.95953 129.82080999999997 -165.01753 z M 139.64181 -168.18153 C 140.18381 -168.29253 140.69081 -168.93553 140.64381 -169.49753 C 140.34981 -173.01953 134.98481 -175.38553000000002 132.34481 -177.24153 C 130.46281 -178.56353000000001 128.04181 -175.48053000000002 129.86281 -174.02453 C 132.40381 -171.99353 136.15281 -167.46553 139.64181 -168.18153 z M 273.02281 -272.14253 C 273.24481 -271.60353000000003 273.33181 -270.98553000000004 273.08481 -270.25253000000004 C 268.57781 -256.92753000000005 264.03581 -243.60453000000004 259.48881 -230.28353000000004 C 259.83381 -230.33253000000005 260.17281 -230.39353000000006 260.55881 -230.33553000000003 C 274.38680999999997 -228.26953000000003 272.16681 -217.10753000000003 268.55581 -206.70253000000002 C 261.72281 -187.01653000000002 254.79281 -167.36653 247.87381000000002 -147.71153000000004 C 234.20081000000002 -108.87053000000003 220.69181000000003 -69.97153000000004 206.99781000000002 -31.13753000000004 C 177.99381000000002 51.110469999999964 149.54381 133.67146999999994 119.14481000000002 215.41746999999998 C 119.14881000000003 216.07146999999998 119.19681000000003 216.70146999999997 119.07281000000002 217.42547 C 118.14681000000002 222.85246999999998 114.28281000000001 225.34847 109.23681000000002 224.05147 C 108.90781000000003 223.96747 108.76081000000002 223.74847 108.52981000000003 223.58747 C 108.38381000000003 223.59147 108.27781000000003 223.65147 108.12281000000003 223.63947 C 56.93481000000003 219.68247 5.76581000000003 215.49546999999998 -45.41718999999996 211.47646999999998 C -103.42518999999996 206.92246999999998 -162.37118999999996 205.74346999999997 -220.12818999999996 198.70646999999997 C -222.59618999999995 209.99646999999996 -222.65618999999995 221.58846999999997 -222.54818999999995 233.33246999999997 C -222.34418999999994 255.58346999999998 -222.36618999999996 279.62447 -238.16918999999996 296.97447 C -238.18618999999995 297.01347 -238.18818999999996 297.05547 -238.20618999999996 297.09447 C -238.73718999999997 298.27447 -240.46118999999996 298.05647 -241.05218999999997 297.09447 C -243.21818999999996 293.56647 -243.14418999999998 288.99247 -244.26118999999997 285.04947 C -244.91718999999998 282.73347 -245.70018999999996 280.45646999999997 -246.47718999999998 278.17647 C -252.91919 284.48947 -264.17719 286.98046999999997 -272.48019 286.71247 C -272.59919 286.70847 -272.64419 286.62147 -272.74719 286.59747 C -272.79819 286.58447 -272.83419 286.55547 -272.88319 286.53846999999996 C -273.16019 286.43947 -273.40519 286.33246999999994 -273.54719 286.11846999999995 C -273.98219 285.64046999999994 -274.09719 284.93246999999997 -273.46219 284.34246999999993 C -247.27719000000002 260.0044699999999 -252.91019000000003 222.61746999999994 -247.21119000000002 190.32946999999993 C -275.51419000000004 173.77846999999994 -277.96619000000004 134.30646999999993 -260.71419000000003 108.98446999999993 C -235.57519000000002 43.452469999999934 -207.47119000000004 -21.018530000000055 -179.22619000000003 -85.24153000000007 C -150.07919000000004 -151.51153000000005 -122.00719000000004 -218.42453000000006 -91.80319000000003 -284.21053000000006 C -91.43519000000003 -285.0125300000001 -90.72519000000003 -285.31853000000007 -89.98419000000003 -285.3205300000001 C -87.56819000000003 -288.1235300000001 -84.82819000000002 -290.17953000000006 -81.26619000000002 -291.74153000000007 C -79.40019000000002 -292.5605300000001 -76.42919000000002 -293.78553000000005 -73.97419000000002 -293.6275300000001 C -73.70119000000003 -294.1605300000001 -73.26919000000002 -294.6135300000001 -72.49519000000002 -294.6825300000001 C -15.18519000000002 -299.7995300000001 43.35180999999997 -297.5895300000001 100.80880999999998 -296.3095300000001 C 129.86681 -295.6625300000001 158.91680999999997 -294.6875300000001 187.95480999999998 -293.4305300000001 C 214.09881 -292.2985300000001 240.74781 -292.1925300000001 266.64381 -288.19353000000007 C 268.73981 -289.40253000000007 271.90180999999995 -288.05753000000004 271.09680999999995 -285.2215300000001 C 272.58380999999997 -283.36653000000007 273.50480999999996 -280.9285300000001 273.79380999999995 -278.6975300000001 C 274.0208099999999 -276.9525300000001 273.96780999999993 -274.1355300000001 273.02280999999994 -272.1425300000001 z M -111.01219 -196.45953 C -125.21719 -164.23853 -139.44619 -132.02853 -153.68419 -99.82153 C -182.05619000000002 -35.64752999999999 -210.75519 28.378469999999993 -239.31319000000002 92.46947 C -219.91919000000001 89.78047000000001 -199.15919000000002 91.90047 -179.77719000000002 92.64047000000001 C -146.85419000000002 93.89647000000001 -113.94719000000002 95.67947000000001 -81.03919000000002 97.26347000000001 C -12.020190000000014 100.58547000000002 57.44880999999998 102.05047000000002 126.31580999999997 107.69047 C 146.78780999999998 45.382470000000005 168.22280999999998 -16.583529999999996 190.16280999999998 -78.38853 C 214.42280999999997 -146.72953 236.73581 -216.45153 264.06381 -283.64252999999997 C 236.84981 -282.94453 209.34281 -285.88653 182.17181 -287.10853 C 154.09081 -288.37152999999995 125.99681 -289.36852999999996 97.89581 -290.05352999999997 C 41.835809999999995 -291.41853 -14.310190000000006 -289.35553 -70.33418999999999 -290.91553 C -70.35019 -290.82052999999996 -70.33718999999999 -290.73152999999996 -70.37218999999999 -290.63253 C -81.86218999999998 -258.56953 -97.27718999999999 -227.61352999999997 -111.01218999999999 -196.45952999999997 z M -254.51519 101.27047 C -251.12618999999998 97.82547000000001 -247.26918999999998 94.82947 -242.95318999999998 92.44447 C -242.81819 92.36946999999999 -242.68018999999998 92.35746999999999 -242.54218999999998 92.31447 C -214.99518999999998 28.224469999999997 -187.18618999999998 -35.74653000000001 -159.06018999999998 -99.58453 C -144.86118999999997 -131.81453 -130.63419 -164.03352999999998 -116.44818999999998 -196.26953 C -103.06618999999998 -226.67653 -90.87218999999999 -258.08553 -75.79318999999998 -287.72453 C -76.83718999999998 -287.51153 -77.86618999999997 -287.31453 -78.70318999999998 -287.03153000000003 C -81.56818999999997 -286.06253000000004 -84.92218999999997 -284.60853000000003 -87.49718999999997 -282.70953000000003 C -87.52018999999997 -282.61053000000004 -87.50318999999998 -282.51753 -87.54318999999998 -282.41653 C -113.56218999999999 -216.50353 -144.32918999999998 -152.24053000000004 -173.04818999999998 -87.47353000000001 C -200.83218999999997 -24.814530000000012 -227.58918999999997 38.25346999999999 -254.51518999999996 101.27046999999999 z M -246.36819 186.01547 C -245.57819 182.32347 -244.61319 178.70847 -243.39619 175.20547 C -262.58218999999997 161.85147 -258.78019 130.70247 -245.55219 114.70647 C -245.18819 114.26547 -244.74319 114.09747 -244.30319 114.10647 C -234.46119 101.83547 -204.52519 107.47247 -192.16119 107.86947 C -156.37819000000002 109.01647000000001 -120.60519000000001 110.91947 -84.84319 112.59647000000001 C -48.98519000000001 114.27847000000001 -13.127190000000013 115.92147000000001 22.71880999999999 117.85447 C 41.66080999999999 118.87547 60.60080999999999 119.94147000000001 79.53680999999999 121.05847 C 89.24280999999999 121.63047 98.94581 122.23247 108.64780999999999 122.86547 C 116.71681 123.39147 129.66081 126.94347 125.32181 114.36547 C 3.372810000000001 111.97947 -118.28619 97.84847 -240.26318999999998 96.03647000000001 C -253.46119 106.83547000000002 -263.50619 119.61047 -265.53119 137.08947 C -267.84119 157.02547 -258.60418999999996 171.82647 -246.36818999999997 186.01547 z M -147.57119 151.03347 C -161.45419 152.59947 -176.06619 149.96947 -189.97719 148.89647 C -199.31419 158.34347 -207.62419 168.55147 -213.54119 180.35147 C -177.81319 179.78547 -141.68619 183.77247 -106.11519 186.41247 C -71.94719 188.94847000000001 -37.786190000000005 191.61447 -3.575189999999992 193.49347 C 27.388810000000007 195.19447 58.83881000000001 196.60547 89.64681 201.15247 C 82.47581 191.65147 79.84081 177.22947 79.68481 166.57146999999998 C 79.48081 152.61446999999998 83.71681 138.71747 93.53581 129.16447 C 38.62381 126.19447 -16.262190000000004 122.17947 -71.17018999999999 119.26446999999999 C -103.16418999999999 117.56647 -135.16919 116.08846999999999 -167.16818999999998 114.49946999999999 C -183.31118999999998 113.69746999999998 -199.48618999999997 112.31746999999999 -215.64119 111.90446999999999 C -223.30919 111.70846999999999 -236.11919 110.36046999999999 -242.38419 116.13346999999999 C -242.38619 116.41846999999999 -242.43319 116.70746999999999 -242.59618999999998 116.98946999999998 C -248.18219 126.66946999999999 -252.75718999999998 136.24747 -251.65718999999999 147.73746999999997 C -250.77319 156.97746999999998 -245.91118999999998 163.19546999999997 -241.58918999999997 170.50346999999996 C -237.67018999999996 161.34146999999996 -231.69418999999996 153.07546999999997 -222.41918999999996 146.23146999999997 C -225.98718999999997 145.86446999999998 -229.54918999999995 145.45546999999996 -233.10318999999996 144.98646999999997 C -235.48718999999994 144.67146999999997 -235.66518999999997 141.13046999999997 -233.10318999999996 141.12546999999998 C -217.80818999999997 141.10246999999998 -202.49418999999995 142.26447 -187.24318999999997 143.35246999999998 C -173.96918999999997 144.30047 -159.96418999999997 144.06747 -147.13318999999996 147.79646999999997 C -145.22718999999995 148.34946999999997 -145.81218999999996 150.83446999999998 -147.57118999999994 151.03346999999997 z M 86.09381 170.36847 C 88.27381000000001 163.31247 91.99581 156.36647 94.85781 149.85447 C 97.88481 142.96647 101.26281 136.35846999999998 104.75081 129.74347 C 103.75081 129.69247000000001 102.75181 129.64047 101.75181 129.58847 C 88.46181000000001 140.52347 84.36581000000001 155.38647 86.09381 170.36847 z M 91.17081 189.19447 C 99.09981 169.50547 106.29281 149.36747 115.63881 130.30546999999999 C 113.14881000000001 130.18646999999999 110.65981000000001 130.04547 108.17081 129.92047 C 105.45781000000001 136.64147 102.69881000000001 143.29547 99.71281 149.92446999999999 C 95.81681 158.57347 92.70881 168.77147 87.15981000000001 176.58346999999998 C 88.09081 180.85746999999998 89.46081000000001 185.08446999999998 91.17081 189.19446999999997 z M 93.06581 193.40147 C 94.41581 196.19046999999998 95.90281 198.90247 97.53481 201.50746999999998 C 106.28980999999999 178.01246999999998 113.88081 152.98946999999998 125.54381 130.81847 C 123.13580999999999 130.71147 120.72881 130.55847 118.32081 130.44547 C 111.84881 152.04147 102.17381 172.82347 93.06581 193.40147000000002 z M -219.50419 180.91647 C -213.95919 168.85047 -205.87419 157.95347 -196.56019 148.40147000000002 C -199.47719 148.18447 -202.39419 147.95447000000001 -205.31219000000002 147.72847000000002 C -217.98919 161.15847000000002 -230.00519000000003 175.12647 -233.89119000000002 193.71447 C -234.28519000000003 195.60047 -237.07619000000003 194.77847 -236.75119000000004 192.92547000000002 C -233.53419000000002 174.58547000000002 -221.96519000000004 160.59047 -209.62919000000005 147.38747 C -211.81919000000005 147.20847 -214.00519000000006 147.00647 -216.19319000000004 146.80747 C -216.28919000000005 147.09947 -216.43619000000004 147.38246999999998 -216.67819000000006 147.63447 C -228.20619000000005 159.67547 -237.60919000000007 171.53146999999998 -241.41819000000007 188.22447 C -245.10119000000006 204.36347 -243.57619000000005 221.09147 -245.16719000000006 237.44947 C -246.77219000000005 253.95547 -251.50319000000007 272.43147 -265.05419000000006 282.53846999999996 C -262.12619000000007 281.70046999999994 -259.2861900000001 280.56147 -256.57319000000007 279.11746999999997 C -253.52519000000007 277.49346999999995 -250.63219000000007 275.10546999999997 -247.35819000000006 273.93046999999996 C -246.70419000000007 272.45847 -244.27719000000008 271.85346999999996 -243.44519000000005 273.61046999999996 C -241.28919000000005 278.17146999999994 -238.17719000000005 283.80046999999996 -237.37519000000006 289.30346999999995 C -223.34419000000005 262.5664699999999 -230.75219000000007 233.57846999999995 -226.56419000000005 204.29846999999995 C -225.46119000000004 196.58346999999995 -223.15319000000005 189.23946999999995 -220.06519000000006 182.23746999999995 C -220.08519000000007 181.72846999999996 -219.88219000000007 181.26846999999995 -219.50419000000005 180.91646999999995 z M 107.74681 216.03047 C 105.26281 211.53747 101.47581 209.48247 96.33681 209.95047 C 92.67581 209.52347 89.01781 209.07846999999998 85.36181 208.61347 C 78.04581 207.69847000000001 70.73881 206.71447 63.42181000000001 205.81247000000002 C 49.63681000000001 204.11247000000003 35.870810000000006 202.77247000000003 21.99681000000001 202.07647000000003 C -4.939189999999989 200.72447000000003 -31.84818999999999 199.07947000000001 -58.743189999999984 197.06647000000004 C -110.76118999999998 193.17347000000004 -163.71119 191.01947000000004 -215.47019 184.49947000000003 C -215.83219 185.32347000000004 -216.22419 186.12647000000004 -216.56219000000002 186.96547000000004 C -217.61719000000002 189.59147000000004 -218.43619 192.24447000000004 -219.15919000000002 194.90947000000003 C -161.44419000000002 194.54547000000002 -102.95519000000003 201.16847 -45.41819000000001 204.97647000000003 C 5.657809999999991 208.35547000000003 56.711809999999986 212.08647000000005 107.74680999999998 216.03047000000004 z M 185.87281 -11.73653 C 202.42081 -58.99953 217.93381 -106.55153 233.24080999999998 -154.18652999999998 C 200.34981 -59.77452999999997 166.24280999999996 34.32147000000003 130.19880999999998 127.42747 C 130.08181 127.73047 129.89781 127.94747 129.69180999999998 128.12547 C 129.65780999999998 128.21847 129.64980999999997 128.30847 129.61480999999998 128.40147000000002 C 129.39880999999997 128.97647 129.04380999999998 129.49647000000002 128.61081 129.92647000000002 C 120.97480999999999 154.45847000000003 112.22580999999998 179.71947000000003 101.41980999999998 203.07747 C 102.47380999999999 203.26347 103.53480999999998 203.41347000000002 104.58680999999999 203.60847 C 105.41680999999998 203.76247 106.27380999999998 203.95247 107.13180999999999 204.17047000000002 C 131.42980999999997 131.60547000000003 160.57681 60.518470000000036 185.87281 -11.736529999999988 z M 189.37781 -7.83753 C 164.29381 63.333470000000005 140.12681 135.79447000000002 110.19681000000001 205.10747 C 112.98781000000001 206.12747000000002 115.54681000000001 207.61547000000002 117.23381000000002 209.72847000000002 C 141.76881000000003 136.86947000000004 168.01081000000002 64.53947000000002 193.31681000000003 -8.05252999999999 C 205.47681000000003 -42.93752999999999 217.59781000000004 -77.83752999999999 229.66381000000004 -112.75553 C 235.83781000000005 -130.62153 241.87881000000004 -148.53253 247.87181000000004 -166.46053 C 250.89681000000004 -175.51153 253.98081000000005 -184.54353 257.03481000000005 -193.58553 C 258.68381000000005 -198.46553 268.51081000000005 -217.86853000000002 261.34181000000007 -222.68453 C 239.32181000000006 -150.48953 214.46381000000008 -79.01153 189.37781000000007 -7.837529999999987 z M 270.13281 -277.89453 C 270.04581 -278.80852999999996 269.73181 -279.58252999999996 269.45681 -280.38153 C 246.16181 -212.14652999999998 218.70181000000002 -145.13053 194.42881 -77.21453 C 172.30581 -15.311529999999998 150.42481 46.693470000000005 129.12881 108.88647 C 129.90680999999998 109.78947000000001 130.13481 111.04847000000001 129.85380999999998 112.14747 C 130.19280999999998 113.09647 130.53180999999998 114.04647 130.73880999999997 115.00147 C 149.54980999999998 57.337469999999996 171.28780999999998 0.4814700000000016 191.61180999999996 -56.64153 C 217.10480999999996 -128.28953 242.84880999999996 -199.83652999999998 267.31980999999996 -271.84253 C 267.73180999999994 -273.05553000000003 268.65880999999996 -273.64453000000003 269.65380999999996 -273.81253000000004 C 269.72680999999994 -274.01053 269.80980999999997 -274.17753000000005 269.86880999999994 -274.39753 C 270.1698099999999 -275.53853000000004 270.2448099999999 -276.72053 270.13280999999995 -277.89453000000003 z M -57.91919 -276.58653 C -35.31719 -276.83553 -12.223190000000002 -277.48353 10.186809999999994 -280.56953 C 11.806809999999995 -280.79253 11.344809999999994 -283.30852999999996 9.810809999999995 -283.34353 C -12.670190000000007 -283.85853 -35.569190000000006 -281.82353 -57.91919000000001 -279.50552999999996 C -59.746190000000006 -279.31552999999997 -59.838190000000004 -276.56552999999997 -57.91919000000001 -276.58653 z M -190.33619 167.97447 C -160.86119 170.48147 -131.30518999999998 172.53847 -101.73818999999999 173.36047 C -100.36419 173.39847 -99.99918999999998 171.15646999999998 -101.40619 170.90947 C -130.59019 165.79946999999999 -160.83019 165.98947 -190.33619 164.01947 C -192.88818999999998 163.84947000000003 -192.84718999999998 167.76047000000003 -190.33619 167.97447000000003 z M -240.33219 237.41947 C -243.19619 246.76547 -244.41519 257.91147 -245.16919 267.66147 C -245.31118999999998 269.48847 -242.65219 269.65547000000004 -242.11819 268.07447 C -239.07019 259.05747 -237.03319 247.18147000000002 -238.25119 237.70147000000003 C -238.39619000000002 236.57347000000004 -239.95619000000002 236.19447000000002 -240.33219 237.41947000000002 z M -238.80319 205.37947 C -240.59519 212.49347 -240.41719 220.78347 -239.48419 228.00947 C -239.28919000000002 229.51946999999998 -237.21019 229.58446999999998 -237.08319 228.00947 C -236.49119 220.69647 -236.13019 212.64847 -237.21519 205.37947 C -237.33819 204.55147 -238.61619000000002 204.63846999999998 -238.80319 205.37947 z" stroke-linecap="round" />
</g>
<g transform="matrix(13.44 0 0 3.83 259.44 210.59)" id="vYwW5YBgBfm-kw8cDrLxD"  >
<path style="stroke: rgb(204,12,130); stroke-width: 0; stroke-dasharray: none; stroke-linecap: butt; stroke-dashoffset: 0; stroke-linejoin: miter; stroke-miterlimit: 4; fill: rgb(145,201,236); fill-rule: nonzero; opacity: 0;" vector-effect="non-scaling-stroke"  transform=" translate(0, 0)" d="M -16.83087 -16.83087 L 16.830879999999997 -16.83087 L 16.830879999999997 16.830879999999997 L -16.83087 16.830879999999997 z" stroke-linecap="round" />
</g>
</svg>