<?xml version="1.0" encoding="UTF-8" standalone="no" ?>
<!DOCTYPE svg PUBLIC "-//W3C//DTD SVG 1.1//EN" "http://www.w3.org/Graphics/SVG/1.1/DTD/svg11.dtd">
<svg xmlns="http://www.w3.org/2000/svg" xmlns:xlink="http://www.w3.org/1999/xlink" version="1.1" width="213.33333" height="80" viewBox="0 -4.6875000947466106e-7 160 60.00000093750002" xml:space="preserve">
<desc>Created with Fabric.js 4.6.0</desc>
<defs>
</defs>
<g transform="matrix(1 0 0 1 80 29)" style="" id="n6fo8D8WqmGrhBVdKUrzW"  >
		<text xml:space="preserve" font-family="Noto Sans" font-size="28" font-style="normal" font-weight="700" letter-spacing="0.028" line-height="1" style="stroke: none; stroke-width: 1; stroke-dasharray: none; stroke-linecap: butt; stroke-dashoffset: 0; stroke-linejoin: miter; stroke-miterlimit: 4; fill: rgb(210,82,133); fill-rule: nonzero; opacity: 0.8; white-space: pre;" ><tspan x="-74.19" y="8.62" >B</tspan><tspan x="-55.34" y="8.62" >o</tspan><tspan x="-37.98" y="8.62" >o</tspan><tspan x="-20.62" y="8.62" >k</tspan><tspan x="-3.23" y="8.62" >P</tspan><tspan x="14.38" y="8.62" >e</tspan><tspan x="30.95" y="8.62" >d</tspan><tspan x="48.71" y="8.62" >i</tspan><tspan x="57.27" y="8.62" >a</tspan></text>
</g>
<g transform="matrix(13.44 0 0 3.83 259.44 210.59)" id="vYwW5YBgBfm-kw8cDrLxD"  >
<path style="stroke: rgb(204,12,130); stroke-width: 0; stroke-dasharray: none; stroke-linecap: butt; stroke-dashoffset: 0; stroke-linejoin: miter; stroke-miterlimit: 4; fill: rgb(145,201,236); fill-rule: nonzero; opacity: 0;" vector-effect="non-scaling-stroke"  transform=" translate(0, 0)" d="M -16.83087 -16.83087 L 16.830879999999997 -16.83087 L 16.830879999999997 16.830879999999997 L -16.83087 16.830879999999997 z" stroke-linecap="round" />
</g>
<g transform="matrix(0.03 0 0 0.04 16.5 -48)" id="WNWmKDLkWP_I5pbwNlOqu"  >
<path style="stroke: none; stroke-width: 1; stroke-dasharray: none; stroke-linecap: butt; stroke-dashoffset: 0; stroke-linejoin: miter; stroke-miterlimit: 4; fill: rgb(184,31,73); fill-rule: nonzero; opacity: 1;" vector-effect="non-scaling-stroke"  transform=" translate(-301.04, -300.06)" d="M 179.361 447.713 C 195.35999999999999 448.23900000000003 211.761 447.848 227.63899999999998 450.02500000000003 C 229.76199999999997 450.31600000000003 229.07799999999997 453.499 227.15699999999998 453.58500000000004 C 211.32199999999997 454.297 195.17 452.36800000000005 179.361 451.432 C 176.986 451.291 176.957 447.634 179.361 447.713 z M 199.304 464.904 C 226.46800000000002 466.387 253.779 470.016 280.952 470.548 C 282.541 470.579 282.943 468.063 281.334 467.728 C 254.662 462.17 226.431 462.41 199.304 461.844 C 197.324 461.803 197.348 464.797 199.304 464.904 z M 280.952 441.58 C 306.905 443.039 332.777 447.027 358.721 447.966 C 360.116 448.016 360.431 445.833 359.053 445.515 C 333.713 439.679 306.836 438.76 280.952 437.437 C 278.285 437.301 278.299 441.431 280.952 441.58 z M 267.517 457.001 C 285.908 459.45099999999996 304.375 461.14599999999996 322.858 462.73199999999997 C 338.516 464.075 354.967 466.81699999999995 370.682 465.969 C 372.279 465.883 372.654 463.628 371.064 463.149 C 356.642 458.808 340.249 459.002 325.34200000000004 457.873 C 306.035 456.40999999999997 286.737 454.859 267.51800000000003 452.483 C 264.626 452.124 264.682 456.623 267.517 457.001 z M 361.177 476.688 C 345.19800000000004 472.318 327.15200000000004 474.26099999999997 310.711 472.781 C 307.302 472.474 307.32300000000004 477.796 310.711 478.101 C 326.952 479.562 344.456 481.523 360.714 480.109 C 362.589 479.947 363.177 477.235 361.177 476.688 z M 173.4 434.754 C 175.723 434.694 175.68 431.343 173.4 431.17600000000004 C 148.98000000000002 429.38300000000004 124.15200000000002 427.36500000000007 99.659 428.34200000000004 C 96.85300000000001 428.45400000000006 96.834 432.819 99.659 432.72 C 124.278 431.864 148.79 435.39 173.4 434.754 z M 222.569 169.464 C 226.46599999999998 152.775 234.90699999999998 136.847 241.498 121.06899999999999 C 245.56099999999998 111.344 246.499 98.87099999999998 253.77599999999998 90.87099999999998 C 254.51199999999997 90.06199999999998 255.52599999999998 90.18999999999998 256.21799999999996 90.74399999999999 C 290.65299999999996 92.52299999999998 325.13399999999996 93.61099999999999 359.606 94.34199999999998 C 394.168 95.07499999999999 428.927 93.64999999999999 463.44 95.38999999999999 C 464.635 94.95199999999998 466.358 95.73199999999999 466.171 97.17999999999999 C 464.346 111.288 458.561 125.21099999999998 454.087 138.696 C 449.159 153.552 444.01599999999996 168.325 438.23699999999997 182.874 C 437.88599999999997 183.757 437.12399999999997 184.159 436.361 184.19299999999998 C 436.349 184.195 436.343 184.206 436.331 184.20799999999997 C 418.267 185.99999999999997 398.84700000000004 182.28499999999997 380.72200000000004 181.10799999999998 C 363.38800000000003 179.98199999999997 346.04600000000005 179.00999999999996 328.69700000000006 178.15399999999997 C 293.62300000000005 176.42199999999997 258.55100000000004 175.01399999999998 223.55700000000007 171.98699999999997 C 222.141 171.866 221.801 170.223 222.569 169.464 z M 225.784 169.114 C 261.066 169.52 296.32 170.609 331.57 172.19 C 349.903 173.013 368.23 173.94899999999998 386.53999999999996 175.171 C 402.42499999999995 176.231 419.59299999999996 175.932 435.04699999999997 180.105 C 440.39599999999996 166.06099999999998 445.25399999999996 151.845 449.64799999999997 137.47299999999998 C 453.49699999999996 124.88399999999999 456.19399999999996 111.36099999999999 461.33399999999995 99.19299999999998 C 427.73799999999994 102.44099999999999 393.26899999999995 100.57099999999998 359.60499999999996 99.70099999999998 C 325.15099999999995 98.81099999999998 290.69199999999995 97.20799999999998 256.38699999999994 93.82099999999998 C 251.27499999999995 102.88999999999999 250.47899999999996 114.31199999999998 246.42199999999994 123.94699999999999 C 242.95099999999994 132.19 239.67999999999995 140.81699999999998 236.02699999999993 149.23499999999999 C 236.65199999999993 148.67399999999998 237.62599999999992 148.47099999999998 238.41999999999993 149.194 C 244.30099999999993 154.547 251.03899999999993 159.62599999999998 255.84299999999993 166 C 256.4599999999999 166.818 255.28499999999994 167.832 254.49099999999993 167.353 C 247.64199999999994 163.223 241.88999999999993 156.971 235.95599999999993 151.657 C 235.57499999999993 151.315 235.43099999999993 150.924 235.42199999999994 150.54000000000002 C 232.58 156.993 229.443 163.257 225.784 169.114 z M 217.242 222.306 C 240.237 224.292 263.924 222.203 287.034 222.65900000000002 C 310.109 223.11300000000003 333.73 226.031 356.757 224.574 C 358.59000000000003 224.458 359.212 221.632 357.214 221.199 C 334.541 216.288 310.141 216.798 287.034 216.52900000000002 C 264.01 216.26000000000002 239.543 215.062 216.798 219.02400000000003 C 214.821 219.367 215.493 222.154 217.242 222.306 z M 348.701 263.261 C 350.357 263.119 351.038 260.439 349.127 260.117 C 330.85900000000004 257.038 312.012 257.023 293.567 255.389 C 271.57800000000003 253.441 249.66000000000003 250.952 227.813 247.787 C 224.831 247.35500000000002 223.517 251.898 226.54899999999998 252.372 C 265.925 258.518 308.817 266.69 348.701 263.261 z M 219.215 298.14 C 241.555 297.808 263.952 298.52799999999996 286.23400000000004 300.16999999999996 C 308.42100000000005 301.80499999999995 330.62500000000006 305.79099999999994 352.836 306.501 C 354.745 306.56199999999995 355.071 303.734 353.28000000000003 303.21799999999996 C 310.98800000000006 291.02199999999993 262.766 292.35099999999994 219.21500000000003 293.76099999999997 C 216.408 293.853 216.387 298.182 219.215 298.14 z M 345.276 341.262 C 298.159 330.203 247.42000000000002 330.081 199.298 331.442 C 196.156 331.53000000000003 196.136 336.359 199.298 336.338 C 248.184 336.007 296.145 342.098 344.813 344.684 C 346.771 344.788 347.186 341.71 345.276 341.262 z M 440.985 306.336 C 428.773 331.79 421.237 359.611 411.224 386.009 C 389.426 379.58000000000004 362.613 380.71700000000004 340.221 380.867 C 337.434 380.886 337.431 385.16400000000004 340.221 385.19800000000004 C 363.83 385.48600000000005 388.136 390.91 411.63300000000004 389.63700000000006 C 412.59200000000004 390.01300000000003 413.898 389.75800000000004 414.39500000000004 388.52500000000003 C 425.02700000000004 362.13700000000006 436.35600000000005 334.987 443.78100000000006 307.51500000000004 C 444.22 305.893 441.755 304.732 440.985 306.336 z M 165.931 378.394 C 140.061 372.461 109.22800000000001 371.731 82.769 373.26 C 80.182 373.409 80.156 377.43899999999996 82.769 377.30899999999997 C 110.40400000000001 375.936 137.961 381.31699999999995 165.543 381.26099999999997 C 167.157 381.258 167.569 378.769 165.931 378.394 z M 87.748 355.345 C 98.62700000000001 355.206 108.965 358.028 119.70400000000001 358.459 C 120.808 358.503 121.26500000000001 356.868 120.274 356.354 C 110.773 351.425 98.185 351.46 87.74799999999999 351.95599999999996 C 85.582 352.058 85.554 355.374 87.748 355.345 z M 93.739 341.651 C 98.74300000000001 341.19800000000004 103.70700000000001 341.333 108.619 342.48400000000004 C 113.008 343.51300000000003 117.053 345.71600000000007 121.477 346.49100000000004 C 122.58 346.684 123.363 345.48100000000005 122.57600000000001 344.60300000000007 C 115.888 337.12800000000004 102.43700000000001 336.78600000000006 93.251 338.0450000000001 C 91.219 338.323 91.678 341.837 93.739 341.651 z M 97.311 326.98 C 101.105 327.569 104.89800000000001 328.146 108.70200000000001 328.665 C 111.73700000000001 329.08000000000004 114.94200000000001 329.954 117.91700000000002 329 C 118.87300000000002 328.693 119.04400000000001 327.431 118.19300000000001 326.892 C 115.561 325.223 112.24900000000001 325.254 109.21300000000001 324.891 C 105.399 324.435 101.58300000000001 324.03700000000003 97.762 323.65000000000003 C 95.88 323.461 95.421 326.687 97.311 326.98 z M 103.288 317.102 C 105.82 317.537 108.353 317.972 110.88499999999999 318.407 C 112.817 318.739 114.43799999999999 319.36199999999997 116.225 318.38599999999997 C 116.85 318.044 116.88199999999999 317.212 116.439 316.722 C 115.05 315.186 113.255 315.304 111.264 314.971 C 108.91 314.577 106.55499999999999 314.182 104.201 313.788 C 102.041 313.426 101.107 316.727 103.288 317.102 z M 109.884 308.697 C 113.097 308.01800000000003 116.456 307.625 119.747 307.614 C 122.479 307.60499999999996 125.212 307.89799999999997 127.878 307.16799999999995 C 128.897 306.88899999999995 129.028 305.51499999999993 128.165 304.97399999999993 C 122.731 301.56899999999996 114.64899999999999 303.6069999999999 109.008 305.51899999999995 C 107 306.201 107.803 309.137 109.884 308.697 z M 121.289 296.604 C 135.501 265.26 152.318 233.51999999999998 162.199 200.47299999999998 C 162.613 199.09199999999998 160.49900000000002 198.14499999999998 159.833 199.475 C 144.393 230.331 132.283 263.24399999999997 118.119 294.751 C 117.158 296.887 120.313 298.758 121.289 296.604 z M 174.125 187.085 C 171.488 185.89700000000002 168.677 186.04600000000002 165.815 186.086 C 162.379 186.13400000000001 158.891 186.09300000000002 155.47299999999998 186.442 C 153.05499999999998 186.68900000000002 153.04999999999998 189.961 155.47299999999998 190.208 C 158.892 190.557 162.379 190.517 165.815 190.564 C 168.676 190.60299999999998 171.487 190.753 174.125 189.564 C 175.064 189.141 175.064 187.509 174.125 187.085 z M 164.9 174.759 C 162.733 174.396 161.75300000000001 177.607 163.97400000000002 178.118 C 168.13600000000002 179.076 173.585 178.617 177.716 177.72 C 178.844 177.475 178.834 176.007 178.014 175.44 C 174.401 172.941 168.96 175.439 164.9 174.759 z M 181.662 165.347 C 179.001 164.56900000000002 176.14700000000002 164.874 173.4 164.88400000000001 C 171.431 164.89100000000002 171.428 167.937 173.4 167.94400000000002 C 176.147 167.954 179.001 168.25900000000001 181.662 167.48100000000002 C 182.713 167.173 182.715 165.655 181.662 165.347 z M 189.752 143.839 C 196.853 127.721 204.77300000000002 111.693 210.41500000000002 94.99000000000001 C 210.937 93.444 208.568 92.465 207.79100000000003 93.88400000000001 C 199.40500000000003 109.18700000000001 193.03700000000003 125.70100000000002 186.05400000000003 141.67600000000002 C 184.961 144.175 188.641 146.361 189.752 143.839 z M 494.183 27.02 C 503.476 26.197 512.942 26.394 522.139 28.078 C 530.396 29.589 538.066 33.073 546.273 34.666 C 547.289 34.863 548.366 33.538 547.395 32.738 C 533.3009999999999 21.112000000000002 510.86 20.887999999999998 493.788 24.107 C 492.164 24.413 492.513 27.168 494.183 27.02 z M 531.582 48.171 C 532.942 48.572 533.575 46.948 532.841 46.007 C 527.421 39.058 515.586 38.309999999999995 507.604 39.391 C 505.755 39.641 506.173 42.844 508.049 42.674 C 512.386 42.278999999999996 516.59 42.58 520.788 43.793 C 524.565 44.884 527.853 47.072 531.582 48.171 z M 530.031 58.192 C 531.0899999999999 58.134 531.953 57.034 531.319 56.007 C 528.053 50.711999999999996 519.731 49.178 514.009 48.827999999999996 C 511.216 48.657 511.25 52.949 514.009 53.159 C 516.965 53.385 519.832 54.016999999999996 522.58 55.141999999999996 C 524.164 55.791 525.639 56.657999999999994 527.186 57.352 C 526.08 57.946 525.576 59.592999999999996 527.043 60.416999999999994 C 529.225 61.642999999999994 531.333 62.885999999999996 533.67 63.788999999999994 C 534.641 64.16399999999999 535.264 62.797999999999995 534.632 62.13699999999999 C 533.224 60.663 531.633 59.435 530.031 58.192 z M 263.436 153.278 C 259.364 149.099 255.69599999999997 144.582 252.35699999999997 139.79999999999998 C 251.06799999999998 137.95399999999998 248.01899999999998 139.69299999999998 249.30799999999996 141.582 C 252.46099999999996 146.201 255.89199999999997 150.611 259.68899999999996 154.721 C 263.361 158.696 267.40999999999997 163.156 272.43399999999997 165.386 C 273.32599999999996 165.78199999999998 274.74399999999997 164.855 273.97999999999996 163.84 C 270.987 159.863 266.9 156.832 263.436 153.278 z M 258.033 123.569 C 256.307 121.709 253.639 124.449 255.27 126.33200000000001 C 265.67900000000003 138.354 275.65000000000003 151.241 287.908 161.434 C 288.78700000000003 162.166 290.336 161.222 289.608 160.12199999999999 C 280.743 146.714 268.937 135.316 258.033 123.569 z M 266.816 108.877 C 265.087 107.145 262.56199999999995 109.735 264.152 111.53999999999999 C 278.774 128.13 290.75399999999996 147.441 305.863 163.432 C 307.061 164.701 308.741 163.09199999999998 308.118 161.69199999999998 C 299.332 141.936 281.9 123.985 266.816 108.877 z M 331.831 169.311 C 332.814 170.247 334.394 169.061 333.716 167.856 C 322.985 148.786 305.868 132.368 290.139 117.401 C 288.294 115.64399999999999 285.57800000000003 118.356 287.343 120.197 C 302.571 136.083 315.924 154.174 331.831 169.311 z M 332.853 153.081 C 337.50600000000003 157.34599999999998 342.185 163.088 347.996 165.647 C 349.318 166.22899999999998 350.841 165.003 350.05699999999996 163.58499999999998 C 347.00199999999995 158.057 340.87999999999994 153.90699999999998 336.23799999999994 149.695 C 330.88999999999993 144.845 325.4549999999999 140.09699999999998 320.006 135.362 C 318.03599999999994 133.65099999999998 315.18499999999995 136.417 317.10999999999996 138.25799999999998 C 322.318 143.243 327.539 148.21 332.853 153.081 z M 354.425 155.037 C 357.673 158.697 361.125 163.949 365.65700000000004 165.922 C 366.78200000000004 166.412 368.41600000000005 165.587 367.939 164.167 C 366.375 159.504 361.797 155.845 358.46500000000003 152.343 C 354.30400000000003 147.97 350.14300000000003 143.59699999999998 345.982 139.22299999999998 C 344.10900000000004 137.255 341.24100000000004 140.182 343.019 142.18599999999998 C 346.821 146.47 350.623 150.754 354.425 155.037 z M 373.833 156.783 C 377.439 160.183 381.067 164.589 385.74 166.426 C 387.25100000000003 167.01899999999998 388.22200000000004 165.12099999999998 387.654 163.93599999999998 C 385.475 159.396 380.43399999999997 155.92499999999998 376.764 152.57799999999997 C 372.547 148.73299999999998 368.331 144.88899999999998 364.113 141.04399999999998 C 361.86 138.98899999999998 358.517 142.29199999999997 360.751 144.40599999999998 C 365.111 148.531 369.466 152.664 373.833 156.783 z M 392.289 160.876 C 395.337 163.89600000000002 398.344 167.784 402.348 169.473 C 403.577 169.991 404.31600000000003 168.401 403.89 167.467 C 402.082 163.50500000000002 397.715 160.419 394.59499999999997 157.464 C 390.996 154.055 387.39399999999995 150.651 383.794 147.244 C 382.079 145.62199999999999 379.51599999999996 148.167 381.198 149.841 C 384.895 153.52 388.584 157.206 392.289 160.876 z M 403.396 151.549 C 402.32300000000004 150.338 400.603 152.1 401.632 153.31300000000002 C 406.73 159.32100000000003 411.53000000000003 166.11700000000002 417.612 171.16600000000003 C 418.33000000000004 171.76300000000003 419.531 171.00900000000001 418.97900000000004 170.11100000000002 C 414.8 163.295 408.679 157.511 403.396 151.549 z M 405.543 139.291 C 411.259 146.567 416.684 155.185 423.934 160.963 C 424.98600000000005 161.801 426.44800000000004 160.786 425.819 159.50799999999998 C 422.098 151.95399999999998 415.624 145.46499999999997 410.283 139.00199999999998 C 404.245 131.69599999999997 398.312 124.28999999999998 392.047 117.17499999999998 C 390.96900000000005 115.94999999999999 388.766 117.59899999999999 389.75500000000005 118.94399999999999 C 394.846 125.855 400.241 132.54 405.543 139.291 z M 424.164 142.751 C 428.46 148.27700000000002 432.40299999999996 154.935 438.14599999999996 159.022 C 438.78 159.47299999999998 439.84 158.70999999999998 439.52899999999994 157.958 C 436.94699999999995 151.722 431.6929999999999 146.634 427.46899999999994 141.441 C 422.0999999999999 134.843 416.73299999999995 128.244 411.36499999999995 121.646 C 410.18799999999993 120.2 408.22099999999995 122.245 409.335 123.676 C 414.277 130.035 419.221 136.393 424.164 142.751 z M 430.857 135.04 C 433.617 137.459 436.382 140.743 440.023 141.706 C 441.218 142.022 441.90500000000003 140.797 441.485 139.804 C 440.024 136.351 436.175 133.912 433.387 131.513 C 430.17 128.746 426.894 126.051 423.562 123.424 C 421.781 122.019 419.271 124.32700000000001 420.999 125.98700000000001 C 424.217 129.081 427.5 132.098 430.857 135.04 z M 440.678 131.876 C 441.21999999999997 131.76500000000001 441.727 131.122 441.68 130.56 C 441.386 127.038 436.021 124.672 433.38100000000003 122.816 C 431.499 121.494 429.07800000000003 124.577 430.899 126.033 C 433.44 128.064 437.189 132.592 440.678 131.876 z M 574.059 27.915 C 574.281 28.454 574.3679999999999 29.072 574.121 29.805 C 569.614 43.129999999999995 565.072 56.453 560.525 69.774 C 560.87 69.725 561.209 69.664 561.595 69.722 C 575.423 71.788 573.203 82.94999999999999 569.592 93.35499999999999 C 562.759 113.041 555.829 132.69099999999997 548.91 152.346 C 535.237 191.187 521.728 230.086 508.034 268.92 C 479.03 351.168 450.58 433.72900000000004 420.181 515.475 C 420.185 516.129 420.233 516.759 420.109 517.4830000000001 C 419.183 522.9100000000001 415.31899999999996 525.4060000000001 410.27299999999997 524.109 C 409.94399999999996 524.0250000000001 409.79699999999997 523.806 409.566 523.645 C 409.41999999999996 523.649 409.31399999999996 523.709 409.159 523.697 C 357.971 519.74 306.802 515.553 255.619 511.534 C 197.611 506.98 138.66500000000002 505.801 80.90799999999999 498.764 C 78.43999999999998 510.05400000000003 78.37999999999998 521.646 78.48799999999999 533.39 C 78.69199999999998 555.641 78.66999999999999 579.682 62.86699999999998 597.032 C 62.84999999999998 597.071 62.847999999999985 597.113 62.829999999999984 597.152 C 62.298999999999985 598.332 60.57499999999998 598.114 59.98399999999998 597.152 C 57.817999999999984 593.624 57.89199999999998 589.0500000000001 56.77499999999998 585.1070000000001 C 56.11899999999998 582.791 55.33599999999998 580.5140000000001 54.558999999999976 578.234 C 48.116999999999976 584.547 36.85899999999998 587.038 28.555999999999976 586.77 C 28.436999999999976 586.766 28.391999999999975 586.679 28.288999999999977 586.655 C 28.23799999999998 586.6419999999999 28.201999999999977 586.6129999999999 28.152999999999977 586.596 C 27.875999999999976 586.497 27.63099999999998 586.39 27.488999999999976 586.176 C 27.053999999999977 585.6980000000001 26.938999999999975 584.99 27.573999999999977 584.4000000000001 C 53.75899999999997 560.0620000000001 48.125999999999976 522.6750000000001 53.824999999999974 490.38700000000006 C 25.521999999999974 473.83600000000007 23.069999999999975 434.36400000000003 40.321999999999974 409.04200000000003 C 65.46099999999997 343.51000000000005 93.56499999999997 279.03900000000004 121.80999999999997 214.81600000000003 C 150.95699999999997 148.54600000000005 179.02899999999997 81.63300000000004 209.23299999999998 15.847000000000037 C 209.60099999999997 15.045000000000037 210.31099999999998 14.739000000000036 211.05199999999996 14.737000000000037 C 213.46799999999996 11.934000000000037 216.20799999999997 9.878000000000037 219.76999999999995 8.316000000000038 C 221.63599999999997 7.497000000000038 224.60699999999994 6.2720000000000375 227.06199999999995 6.430000000000038 C 227.33499999999995 5.8970000000000375 227.76699999999997 5.444000000000038 228.54099999999997 5.375000000000038 C 285.851 0.2580000000000382 344.388 2.468000000000038 401.84499999999997 3.7480000000000384 C 430.90299999999996 4.395000000000039 459.953 5.370000000000038 488.991 6.627000000000038 C 515.135 7.759000000000038 541.784 7.8650000000000375 567.68 11.864000000000038 C 569.776 10.655000000000038 572.938 12.000000000000037 572.1329999999999 14.836000000000038 C 573.6199999999999 16.691000000000038 574.5409999999999 19.129000000000037 574.8299999999999 21.36000000000004 C 575.057 23.105 575.004 25.922 574.059 27.915 z M 190.024 103.598 C 175.819 135.819 161.59 168.029 147.352 200.236 C 118.98 264.40999999999997 90.281 328.436 61.723 392.527 C 81.11699999999999 389.83799999999997 101.87700000000001 391.95799999999997 121.259 392.698 C 154.18200000000002 393.95399999999995 187.089 395.73699999999997 219.997 397.32099999999997 C 289.016 400.643 358.485 402.10799999999995 427.352 407.748 C 447.82399999999996 345.44 469.25899999999996 283.474 491.19899999999996 221.66899999999998 C 515.459 153.32799999999997 537.7719999999999 83.606 565.0999999999999 16.414999999999992 C 537.886 17.112999999999992 510.3789999999999 14.170999999999992 483.2079999999999 12.948999999999991 C 455.1269999999999 11.685999999999991 427.0329999999999 10.688999999999991 398.9319999999999 10.00399999999999 C 342.8719999999999 8.63899999999999 286.7259999999999 10.701999999999991 230.7019999999999 9.14199999999999 C 230.68599999999992 9.236999999999991 230.69899999999993 9.32599999999999 230.6639999999999 9.42499999999999 C 219.174 41.488 203.759 72.444 190.024 103.598 z M 46.521 401.328 C 49.910000000000004 397.883 53.767 394.887 58.083 392.50199999999995 C 58.217999999999996 392.42699999999996 58.356 392.41499999999996 58.494 392.37199999999996 C 86.041 328.2819999999999 113.85 264.3109999999999 141.976 200.47299999999996 C 156.175 168.24299999999997 170.402 136.02399999999994 184.588 103.78799999999995 C 197.97 73.38099999999996 210.164 41.97199999999995 225.243 12.332999999999956 C 224.19899999999998 12.545999999999955 223.17 12.742999999999956 222.333 13.025999999999955 C 219.468 13.994999999999955 216.114 15.448999999999955 213.539 17.347999999999956 C 213.516 17.446999999999957 213.533 17.539999999999957 213.493 17.640999999999956 C 187.474 83.55399999999995 156.707 147.81699999999995 127.988 212.58399999999997 C 100.204 275.243 73.447 338.311 46.521 401.328 z M 54.668 486.073 C 55.458 482.381 56.423 478.76599999999996 57.64 475.263 C 38.454 461.909 42.256 430.76 55.484 414.76399999999995 C 55.848 414.323 56.293 414.155 56.733000000000004 414.16399999999993 C 66.575 401.8929999999999 96.511 407.5299999999999 108.875 407.9269999999999 C 144.65800000000002 409.0739999999999 180.43099999999998 410.9769999999999 216.19299999999998 412.6539999999999 C 252.051 414.3359999999999 287.909 415.97899999999987 323.755 417.91199999999986 C 342.697 418.9329999999999 361.637 419.99899999999985 380.573 421.1159999999999 C 390.279 421.6879999999999 399.98199999999997 422.28999999999985 409.68399999999997 422.9229999999999 C 417.753 423.4489999999999 430.69699999999995 427.00099999999986 426.35799999999995 414.4229999999999 C 304.40899999999993 412.03699999999986 182.74999999999994 397.9059999999999 60.77299999999997 396.0939999999999 C 47.57499999999997 406.89299999999986 37.52999999999997 419.6679999999999 35.50499999999997 437.1469999999999 C 33.195 457.083 42.432 471.884 54.668 486.073 z M 153.465 451.091 C 139.582 452.657 124.97 450.027 111.059 448.954 C 101.722 458.401 93.412 468.60900000000004 87.495 480.409 C 123.22300000000001 479.843 159.35000000000002 483.83 194.921 486.46999999999997 C 229.089 489.006 263.25 491.67199999999997 297.461 493.551 C 328.425 495.252 359.875 496.663 390.683 501.21 C 383.512 491.709 380.877 477.287 380.721 466.62899999999996 C 380.517 452.67199999999997 384.753 438.775 394.572 429.222 C 339.66 426.25199999999995 284.774 422.23699999999997 229.866 419.322 C 197.872 417.624 165.86700000000002 416.146 133.868 414.557 C 117.725 413.755 101.55 412.375 85.395 411.962 C 77.72699999999999 411.76599999999996 64.917 410.418 58.652 416.191 C 58.65 416.476 58.603 416.765 58.44 417.04699999999997 C 52.854 426.727 48.278999999999996 436.30499999999995 49.379 447.79499999999996 C 50.263 457.03499999999997 55.125 463.253 59.446999999999996 470.561 C 63.36599999999999 461.399 69.342 453.133 78.61699999999999 446.289 C 75.04899999999999 445.92199999999997 71.487 445.513 67.93299999999999 445.044 C 65.54899999999999 444.729 65.371 441.188 67.93299999999999 441.183 C 83.228 441.15999999999997 98.542 442.322 113.79299999999999 443.40999999999997 C 127.067 444.35799999999995 141.072 444.12499999999994 153.903 447.854 C 155.809 448.407 155.224 450.892 153.465 451.091 z M 387.13 470.426 C 389.31 463.37 393.032 456.424 395.894 449.912 C 398.921 443.024 402.299 436.416 405.78700000000003 429.801 C 404.78700000000003 429.75 403.788 429.698 402.788 429.646 C 389.498 440.581 385.402 455.444 387.13 470.426 z M 392.207 489.252 C 400.13599999999997 469.563 407.329 449.425 416.675 430.363 C 414.185 430.24399999999997 411.696 430.103 409.207 429.978 C 406.49399999999997 436.699 403.735 443.353 400.74899999999997 449.982 C 396.85299999999995 458.63100000000003 393.74499999999995 468.829 388.19599999999997 476.641 C 389.127 480.915 390.497 485.142 392.207 489.252 z M 394.102 493.459 C 395.452 496.248 396.93899999999996 498.96 398.57099999999997 501.565 C 407.32599999999996 478.07 414.917 453.047 426.58 430.876 C 424.17199999999997 430.76899999999995 421.765 430.616 419.35699999999997 430.503 C 412.885 452.099 403.21 472.881 394.102 493.459 z M 81.532 480.974 C 87.077 468.908 95.16199999999999 458.01099999999997 104.476 448.459 C 101.559 448.242 98.642 448.012 95.724 447.786 C 83.047 461.216 71.031 475.184 67.14500000000001 493.772 C 66.751 495.658 63.96000000000001 494.836 64.28500000000001 492.983 C 67.50200000000001 474.64300000000003 79.07100000000001 460.648 91.40700000000001 447.445 C 89.21700000000001 447.266 87.031 447.064 84.84300000000002 446.865 C 84.74700000000001 447.157 84.60000000000002 447.44 84.35800000000002 447.692 C 72.83000000000001 459.733 63.42700000000002 471.589 59.61800000000002 488.28200000000004 C 55.935000000000024 504.42100000000005 57.46000000000002 521.149 55.86900000000002 537.5070000000001 C 54.264000000000024 554.013 49.53300000000002 572.489 35.98200000000002 582.596 C 38.91000000000002 581.758 41.75000000000002 580.619 44.46300000000002 579.175 C 47.511000000000024 577.5509999999999 50.404000000000025 575.163 53.678000000000026 573.9879999999999 C 54.33200000000003 572.516 56.75900000000003 571.911 57.59100000000002 573.6679999999999 C 59.74700000000002 578.2289999999999 62.85900000000002 583.858 63.66100000000002 589.3609999999999 C 77.69200000000002 562.6239999999999 70.28400000000002 533.6359999999999 74.47200000000002 504.3559999999999 C 75.57500000000002 496.6409999999999 77.88300000000002 489.29699999999985 80.97100000000002 482.2949999999999 C 80.951 481.786 81.154 481.326 81.532 480.974 z M 408.783 516.088 C 406.29900000000004 511.59499999999997 402.512 509.53999999999996 397.373 510.008 C 393.712 509.58099999999996 390.054 509.13599999999997 386.39799999999997 508.671 C 379.082 507.756 371.775 506.772 364.45799999999997 505.87 C 350.67299999999994 504.17 336.907 502.83 323.03299999999996 502.134 C 296.097 500.78200000000004 269.188 499.137 242.29299999999995 497.124 C 190.27499999999995 493.23100000000005 137.32499999999993 491.077 85.56599999999995 484.557 C 85.20399999999995 485.38100000000003 84.81199999999994 486.184 84.47399999999995 487.023 C 83.41899999999994 489.649 82.59999999999995 492.302 81.87699999999995 494.96700000000004 C 139.59199999999996 494.60300000000007 198.08099999999996 501.22600000000006 255.61799999999997 505.03400000000005 C 306.694 508.413 357.748 512.144 408.783 516.088 z M 486.909 288.321 C 503.457 241.05800000000002 518.97 193.50600000000003 534.277 145.87100000000004 C 501.386 240.28300000000004 467.27900000000005 334.379 431.235 427.485 C 431.118 427.788 430.934 428.005 430.728 428.183 C 430.694 428.276 430.68600000000004 428.366 430.651 428.459 C 430.435 429.034 430.08 429.55400000000003 429.647 429.984 C 422.01099999999997 454.51599999999996 413.262 479.777 402.456 503.135 C 403.51 503.32099999999997 404.571 503.471 405.623 503.666 C 406.453 503.82 407.31 504.01 408.168 504.228 C 432.466 431.663 461.613 360.576 486.909 288.321 z M 490.414 292.22 C 465.33 363.391 441.163 435.85200000000003 411.233 505.165 C 414.024 506.185 416.583 507.673 418.27 509.786 C 442.805 436.927 469.04699999999997 364.597 494.35299999999995 292.005 C 506.513 257.12 518.6339999999999 222.22 530.6999999999999 187.302 C 536.8739999999999 169.43599999999998 542.915 151.52499999999998 548.9079999999999 133.59699999999998 C 551.9329999999999 124.54599999999998 555.0169999999999 115.51399999999998 558.0709999999999 106.47199999999998 C 559.7199999999999 101.59199999999998 569.5469999999999 82.18899999999998 562.3779999999999 77.37299999999998 C 540.358 149.568 515.5 221.046 490.414 292.22 z M 571.169 22.163 C 571.082 21.249 570.768 20.475 570.4929999999999 19.676000000000002 C 547.198 87.911 519.7379999999999 154.92700000000002 495.4649999999999 222.84300000000002 C 473.3419999999999 284.74600000000004 451.4609999999999 346.75100000000003 430.1649999999999 408.944 C 430.9429999999999 409.84700000000004 431.1709999999999 411.106 430.88999999999993 412.20500000000004 C 431.2289999999999 413.15400000000005 431.5679999999999 414.10400000000004 431.7749999999999 415.059 C 450.5859999999999 357.39500000000004 472.3239999999999 300.53900000000004 492.6479999999999 243.41600000000003 C 518.141 171.76800000000003 543.8849999999999 100.22100000000003 568.3559999999999 28.215000000000032 C 568.7679999999999 27.00200000000003 569.6949999999999 26.413000000000032 570.6899999999998 26.245000000000033 C 570.7629999999998 26.047000000000033 570.8459999999998 25.880000000000035 570.9049999999999 25.660000000000032 C 571.206 24.519 571.281 23.337 571.169 22.163 z M 243.117 23.471 C 265.719 23.222 288.813 22.574 311.22299999999996 19.488 C 312.84299999999996 19.265 312.381 16.749 310.847 16.714 C 288.366 16.198999999999998 265.467 18.233999999999998 243.11699999999996 20.552 C 241.29 20.742 241.198 23.492 243.117 23.471 z M 110.7 468.032 C 140.175 470.539 169.731 472.596 199.298 473.418 C 200.672 473.456 201.037 471.214 199.63 470.967 C 170.446 465.85699999999997 140.206 466.04699999999997 110.69999999999999 464.077 C 108.148 463.907 108.189 467.818 110.7 468.032 z M 60.704 537.477 C 57.84 546.823 56.621 557.9689999999999 55.867000000000004 567.7189999999999 C 55.725 569.5459999999999 58.38400000000001 569.713 58.918000000000006 568.132 C 61.96600000000001 559.1149999999999 64.003 547.2389999999999 62.785000000000004 537.7589999999999 C 62.64 536.631 61.08 536.252 60.704 537.477 z M 62.233 505.437 C 60.440999999999995 512.551 60.619 520.841 61.552 528.067 C 61.747 529.577 63.826 529.642 63.953 528.067 C 64.545 520.754 64.906 512.706 63.821000000000005 505.437 C 63.698 504.609 62.42 504.696 62.233 505.437 z" stroke-linecap="round" />
</g>
</svg>